<svg width="64" height="64" xmlns="http://www.w3.org/2000/svg">
  <defs>
    <linearGradient id="whatsappGrad" x1="0%" y1="0%" x2="100%" y2="100%">
      <stop offset="0%" style="stop-color:#25d366;stop-opacity:1" />
      <stop offset="100%" style="stop-color:#1ebe57;stop-opacity:1" />
    </linearGradient>
  </defs>
  <circle cx="32" cy="32" r="32" fill="url(#whatsappGrad)"/>
  <g transform="translate(32, 32)">
    <path fill="white" d="M 0 -12 C -6.6 -12 -12 -6.6 -12 0 C -12 3 -10.5 5.7 -8.2 7.5 L -9.5 11 L -5.5 9.5 C -3.5 10.5 -1.8 11 0 11 C 6.6 11 12 5.4 12 0 C 12 -6.6 6.6 -12 0 -12 Z M -5.5 -1.5 C -5.8 -1.5 -6.1 -1.3 -6.2 -1 C -6.3 -0.7 -6.3 -0.2 -6.2 0.2 C -5.8 2 -4.5 3.5 -2.8 4 C -2 4.2 -0.9 4.2 0.1 4 C 1 3.8 1.8 3.3 2.3 2.5 C 2.5 2.2 2.5 1.8 2.3 1.5 C 2.1 1.2 1.7 1 1.4 1.2 C 0.9 1.6 0.4 1.8 -0.2 1.8 C -1 1.8 -1.6 1.3 -1.8 0.7 C -2 0.2 -2.3 -0.1 -2.8 -0.2 C -3.4 -0.3 -4.2 -0.1 -4.7 0.3 C -5.1 0.6 -5.3 1.1 -5.5 1.6 C -5.6 2.1 -5.5 2.7 -5.3 3.2 L -5.5 -1.5 Z"/>
  </g>
</svg>